<?xml version="1.0" encoding="UTF-8"?>
<svg width="100pt" height="100pt" version="1.1" viewBox="0 0 100 100" xmlns="http://www.w3.org/2000/svg">
 <path d="m66.801 25.398l-25.898 4.1992c-1.1992 0.19922-2.1016 1.1992-2.1016 2.5v33.199c0 3.6016-3.8984 4.1016-5.1016 4.1992-2.8008 0.19922-5.8984-0.89844-6.1992-2.8984-0.10156-0.80078 0.10156-1.1992 0.30078-1.5 1.1016-1.3008 4.3984-1.8008 5.8008-1.8008 1.3984 0 2.5-1.1016 2.5-2.5s-1.1992-2.5-2.5-2.5c-0.69922 0-6.6016 0.19922-9.6016 3.6016-1.3008 1.5-1.8008 3.3984-1.5 5.3984 0.69922 4.8008 5.8008 7.1992 10.5 7.1992h1c5.8008-0.39844 9.8008-4.1016 9.8008-9.1992v-20.297l20.898-3.3984v19.602c0 3.6016-3.5 4.1992-5.1016 4.3008-2.8008 0.19922-6-1-6.3008-3-0.10156-1 0.19922-1.5 0.39844-1.8008 1.1016-1.3008 4.1992-1.6016 5.5-1.5 1.3984 0 2.5-1 2.6016-2.3984 0.10156-1.3984-1-2.5-2.3984-2.6016-0.60156 0-6.3984-0.19922-9.3984 3.1992-1 1.1016-2.1016 3-1.6992 5.8008 0.69922 5.1992 6.5 7.6992 11.602 7.3008 5.8008-0.39844 9.6992-4.1016 9.6992-9.3008v-33.199c0-0.69922-0.30078-1.3984-0.89844-1.8984-0.50391-0.60547-1.2031-0.80469-1.9023-0.70703zm-2.1016 11.102l-20.898 3.3984v-5.6016l20.898-3.3984zm27.801-6c-1.6016-4.8984-4.3008-8.3984-8.1992-10.602-4.1992-2.5-8.3984-4.8984-12.602-7.3008-4.1992-2.3984-8.3984-4.8008-12.602-7.3008-2.6992-1.5-5.3984-2.3008-8.3984-2.3984-3.6016-0.10156-6.6992 0.60156-9.3984 2.1992-2.3984 1.3984-4.8008 2.6992-7.1016 4.1016-6 3.3984-12.199 7-18.301 10.602-5.8008 3.5-8.8984 8.8984-8.8984 15.5-0.10156 6.5 0 13.102 0 19.5v9.6992c0 1.8984 0.30078 3.6992 0.80078 5.1992 1.6016 4.6016 4.3008 8.1016 8.1016 10.301 4.1016 2.3984 8.3008 4.8008 12.5 7.1992 4.1992 2.3984 8.3984 4.8008 12.5 7.1992 2.5 1.5 5.1016 2.3008 8.1016 2.5h1.3984c3.1992 0 6.1016-0.80078 8.6992-2.3008 8.1992-4.8008 16.699-9.8008 25.102-14.602 2.6992-1.5 4.8984-3.6016 6.5-6.3984 1.8008-3.1016 2.6016-5.6992 2.6016-8.5v-29.898c-0.10547-1.3984-0.30469-3.0977-0.80469-4.6992zm-4.3008 34.801c0 1.8008-0.60156 3.6992-2 6-1.1016 2-2.6016 3.5-4.6016 4.6016-8.5 4.8008-17 9.8008-25.199 14.602-2.1016 1.1992-4.3984 1.6992-7.1992 1.6016-2.1992-0.19922-4.1016-0.80078-5.8984-1.8984-4.1992-2.3984-8.3008-4.8008-12.5-7.1992-4.1992-2.3984-8.3008-4.8008-12.5-7.1992-2.8008-1.6016-4.6992-4-5.8984-7.6016-0.39844-1-0.60156-2.1992-0.60156-3.6016v-9.6992-19.5c0-5 2.1016-8.6016 6.5-11.301 6-3.6016 12.199-7.1016 18.199-10.602 2.3984-1.3984 4.8008-2.6992 7.1992-4.1016 1.8008-1.1016 3.6992-1.6016 6.1016-1.6016h0.60156c2.1992 0.10156 4.1992 0.69922 6.1016 1.8008 4.1992 2.5 8.3984 4.8984 12.602 7.3008 4.1992 2.3984 8.3984 4.8008 12.602 7.3008 2.8008 1.6016 4.6992 4.1016 5.8984 7.8008 0.30078 1 0.5 2.1992 0.5 3.3984l-0.003907 29.898z"/>
</svg>
