<svg width="20" height="20" viewBox="0 0 20 20" fill="none" xmlns="http://www.w3.org/2000/svg">
<path d="M16.1756 4.08602C15.8389 4.0868 15.5053 4.14773 15.1897 4.2657L15.1115 4.30008L15.0475 4.32586L14.6131 4.51024L13.4131 3.31024V3.26805H13.4139C13.4146 2.92587 13.2092 2.61649 12.8928 2.48523C12.5771 2.3532 12.2123 2.42507 11.9701 2.66726C11.7279 2.90866 11.6553 3.27272 11.7857 3.58914C11.917 3.90554 12.2256 4.1118 12.5678 4.1118C12.5842 4.11414 12.6014 4.11414 12.6178 4.1118L13.4959 4.98602L12.2357 5.50008L11.1561 4.4243V4.38211C11.1568 4.03993 10.9506 3.73055 10.6342 3.59851C10.3186 3.46726 9.95372 3.53992 9.71152 3.78211C9.46934 4.02429 9.39746 4.38835 9.5287 4.70477C9.65995 5.02117 9.96932 5.22665 10.3115 5.22587C10.3287 5.22821 10.3451 5.22821 10.3615 5.22587L11.1115 5.97587L9.85528 6.50555L8.90138 5.55555L8.90217 5.55633C8.90373 5.5407 8.90373 5.52508 8.90217 5.51023C8.90295 5.16805 8.69749 4.85867 8.38107 4.72741C8.06545 4.59538 7.70139 4.66726 7.45919 4.90866C7.21623 5.15006 7.14357 5.51334 7.27325 5.82976C7.40372 6.14616 7.71153 6.3532 8.05371 6.35398C8.07011 6.35633 8.0873 6.35633 8.10371 6.35398L8.72949 6.97976L7.47325 7.50944L6.64357 6.68367V6.68445C6.64591 6.6696 6.64591 6.65476 6.64357 6.63991C6.64904 6.29695 6.44513 5.98445 6.12951 5.85007C5.81389 5.71492 5.44747 5.78523 5.20295 6.02664C4.95919 6.26804 4.88499 6.63288 5.01545 6.95008C5.1467 7.26804 5.45607 7.47508 5.79983 7.4743C5.81623 7.47586 5.83342 7.47586 5.84983 7.4743L6.34983 7.9782L4.89983 8.5782L4.33811 10.2626V10.2618C4.29123 10.4595 4.2592 10.6602 4.24201 10.8618L1.32021 13.8C1.02881 14.0898 0.930375 14.5203 1.06553 14.9078L4.46553 11.518L4.86553 11.918L1.38193 15.3742L2.11005 16.1023L5.59985 12.6343L5.99985 13.0343L2.51005 16.4975L3.23817 17.2257L6.71397 13.7561L7.11397 14.1561L3.72577 17.5319C4.10467 17.6514 4.51795 17.5506 4.79999 17.2717L7.52579 14.5615L7.72579 14.7615C7.72579 14.7615 8.66797 13.6373 9.41797 13.6373C10.168 13.6381 9.74219 14.1998 11.1039 14.1998C12.4297 14.1998 12.3039 12.0178 14.8359 9.36378C15.5984 9.78018 16.5109 9.82082 17.3077 9.47315C18.1046 9.12627 18.6952 8.42939 18.9093 7.58721C19.1233 6.74503 18.9351 5.85127 18.4007 5.16621C17.8663 4.48115 17.0452 4.08105 16.1757 4.08417L16.1756 4.08602ZM8.62319 10.286H8.62398C8.2818 10.2868 7.9732 10.0813 7.84274 9.7657C7.71149 9.45008 7.78336 9.0868 8.02477 8.84538C8.26695 8.60398 8.63023 8.53132 8.94587 8.66256C9.26151 8.79381 9.46697 9.1024 9.46541 9.4438C9.46463 9.90864 9.08807 10.2844 8.62401 10.2844L8.62319 10.286ZM10.8756 9.16024C10.5342 9.16024 10.2264 8.954 10.0959 8.63836C9.96545 8.32274 10.0381 7.95946 10.2795 7.71882C10.5217 7.47742 10.885 7.40554 11.1998 7.53678C11.5154 7.66803 11.7209 7.97662 11.7201 8.31802C11.7186 8.78364 11.3412 9.1602 10.8756 9.1602L10.8756 9.16024ZM13.1296 8.03602C12.7882 8.03602 12.4796 7.82978 12.3491 7.51336C12.2194 7.19696 12.2929 6.8329 12.5359 6.59226C12.7788 6.35164 13.1437 6.28132 13.4585 6.41491C13.7734 6.54772 13.9773 6.85787 13.9741 7.20007C13.9694 7.66335 13.5929 8.03601 13.1296 8.03601L13.1296 8.03602ZM15.3836 6.9118H15.3844C15.043 6.91101 14.7352 6.70476 14.6055 6.38914C14.4758 6.07352 14.5484 5.71102 14.7906 5.4696C15.0328 5.22898 15.3961 5.15788 15.7109 5.28913C16.0258 5.42038 16.2305 5.72897 16.2297 6.07037C16.2297 6.29381 16.1406 6.50865 15.982 6.66725C15.8235 6.82506 15.6078 6.91335 15.3844 6.91179L15.3836 6.9118Z" fill="#1B2939"/>
</svg>
