<?xml version="1.0" encoding="UTF-8"?>
<svg width="100pt" height="100pt" version="1.1" viewBox="0 0 100 100" xmlns="http://www.w3.org/2000/svg">
 <g fill-rule="evenodd">
  <path d="m86.766 84.559c0-9.3242-16.547-15.441-36.766-15.441s-36.766 6.1172-36.766 15.441c0 9.3281 16.547 15.441 36.766 15.441s36.766-6.1133 36.766-15.441zm-67.648 0c0-4.4805 13.742-9.5586 30.883-9.5586s30.883 5.0781 30.883 9.5586c0 4.4805-13.742 9.5586-30.883 9.5586s-30.883-5.0781-30.883-9.5586z"/>
  <path d="m33.777 3.4688c0.28906-1.5977-0.76953-3.1289-2.3672-3.4219-1.6016-0.28906-3.1328 0.76953-3.4219 2.3672l-14.707 80.883c-0.28906 1.5977 0.76953 3.1289 2.3672 3.4219 1.6016 0.28906 3.1328-0.76953 3.4219-2.3672zm38.234-1.0547c-0.28906-1.5977-1.8203-2.6562-3.4219-2.3672-1.5977 0.29297-2.6562 1.8242-2.3672 3.4219l14.707 80.883c0.28906 1.5977 1.8203 2.6562 3.4219 2.3672 1.5977-0.29297 2.6562-1.8242 2.3672-3.4219zm-23.492 34l10.148 5.0742c1.4531 0.72656 2.043 2.4922 1.3164 3.9453s-2.4922 2.043-3.9453 1.3164l-3.0977-1.5508v40.094c0 1.625-1.3164 2.9414-2.9414 2.9414s-2.9414-1.3164-2.9414-2.9414v-43.035l-1.168-0.58203c-0.92969 0.61328-2.0469 0.97266-3.2422 0.97266-3.25 0-5.8828-2.6367-5.8828-5.8828 0-3.25 2.6328-5.8828 5.8828-5.8828 3.1289 0 5.6875 2.4453 5.8711 5.5312z"/>
 </g>
</svg>
