<?xml version="1.0" encoding="UTF-8"?>
<svg width="20" height="20" viewBox="0 0 20 20" fill="none" xmlns="http://www.w3.org/2000/svg">
<path d="M10 2C8.8961 2 8 2.89532 8 4C8 5.1039 8.8961 6 10 6C11.1039 6 12 5.1039 12 4C12 2.89532 11.1039 2 10 2Z" fill="#757575"/>
<path d="M7.99907 8.66641V10.1484L11.3335 10.7703L11.9991 10.6531V8.6672C13.067 8.6672 14.0709 8.25158 14.8281 7.4961L16.6656 5.6586L15.7226 4.71564L13.8851 6.55314C13.4015 7.03518 12.7344 7.3336 11.9984 7.3336H7.99921C7.26249 7.3336 6.59609 7.03516 6.11249 6.55314L4.27499 4.71564L3.33203 5.6586L5.16953 7.4961C5.92735 8.25156 6.93125 8.66642 7.99913 8.66642L7.99907 8.66641Z" fill="#757575"/>
<path d="M16.6649 12.5376L16.4336 11.2243L11.3266 12.1251L5.72663 11.0814L3.33203 12.8571L3.79531 15.4837L6.65231 16.3337L7.99841 15.5392V18.0002H9.33201V14.7526L10.6055 14.0003H10.6648V18.0003H11.9984V13.3605L16.6649 12.5376Z" fill="#757575"/>
</svg>

