<?xml version="1.0" encoding="UTF-8"?>
<svg width="20" height="20" viewBox="0 0 20 20" fill="none" xmlns="http://www.w3.org/2000/svg">
<path d="M9 13.5H8C7.72344 13.5 7.5 13.7234 7.5 14C7.5 14.2766 7.72344 14.5 8 14.5H9C9.27656 14.5 9.5 14.2766 9.5 14C9.5 13.7234 9.27656 13.5 9 13.5Z" fill="#757575"/>
<path d="M12 13.5H11C10.7234 13.5 10.5 13.7234 10.5 14C10.5 14.2766 10.7234 14.5 11 14.5H12C12.2766 14.5 12.5 14.2766 12.5 14C12.5 13.7234 12.2766 13.5 12 13.5Z" fill="#757575"/>
<path d="M6 18.5C6.27656 18.5 6.5 18.2766 6.5 18C6.5 17.7242 6.72422 17.5 7 17.5C7.27578 17.5 7.5 17.7242 7.5 18C7.5 18.2766 7.72344 18.5 8 18.5H9C9.27656 18.5 9.5 18.2766 9.5 18C9.5 17.7242 9.72422 17.5 10 17.5C10.2758 17.5 10.5 17.7242 10.5 18C10.5 18.2766 10.7234 18.5 11 18.5H12C12.2766 18.5 12.5 18.2766 12.5 18C12.5 17.7242 12.7242 17.5 13 17.5C13.2758 17.5 13.5 17.7242 13.5 18C13.5 18.2766 13.7234 18.5 14 18.5H15.5C15.7766 18.5 16 18.2766 16 18V2C16 1.72344 15.7766 1.5 15.5 1.5H14C13.7234 1.5 13.5 1.72344 13.5 2C13.5 2.27578 13.2758 2.5 13 2.5C12.7242 2.5 12.5 2.27578 12.5 2C12.5 1.72344 12.2766 1.5 12 1.5H11C10.7234 1.5 10.5 1.72344 10.5 2C10.5 2.27578 10.2758 2.5 10 2.5C9.72422 2.5 9.5 2.27578 9.5 2C9.5 1.72344 9.27656 1.5 9 1.5H8C7.72344 1.5 7.5 1.72344 7.5 2C7.5 2.27578 7.27578 2.5 7 2.5C6.72422 2.5 6.5 2.27578 6.5 2C6.5 1.72344 6.27656 1.5 6 1.5H4.5C4.22344 1.5 4 1.72344 4 2V18C4 18.2766 4.22344 18.5 4.5 18.5H6ZM5 14.5H6C6.27656 14.5 6.5 14.2766 6.5 14C6.5 13.7234 6.27656 13.5 6 13.5H5V2.5H5.58594C5.79218 3.08204 6.34844 3.5 7 3.5C7.65156 3.5 8.20782 3.08204 8.41406 2.5H8.58515C8.79139 3.08204 9.34765 3.5 9.99921 3.5C10.6508 3.5 11.207 3.08204 11.4133 2.5H11.5844C11.7906 3.08204 12.3469 3.5 12.9984 3.5C13.65 3.5 14.2062 3.08204 14.4125 2.5H15V13.5H14C13.7234 13.5 13.5 13.7234 13.5 14C13.5 14.2766 13.7234 14.5 14 14.5H15V17.5H14.414C14.2078 16.918 13.6515 16.5 13 16.5C12.3484 16.5 11.7922 16.918 11.5859 17.5H11.4148C11.2086 16.918 10.6523 16.5 10.0008 16.5C9.34921 16.5 8.79295 16.918 8.58671 17.5H8.41562C8.20938 16.918 7.65312 16.5 7.00156 16.5C6.35 16.5 5.79374 16.918 5.5875 17.5H5V14.5Z" fill="#757575"/>
<path d="M7.99999 12C8.82733 12 9.49999 11.3273 9.49999 10.5V6.8906L12.5 6.1406V8.08748C12.3437 8.03201 12.1758 7.99998 12 7.99998C11.1726 7.99998 10.5 8.67264 10.5 9.49998C10.5 10.3273 11.1726 11 12 11C12.8273 11 13.5 10.3273 13.5 9.49998V5.49998C13.5 5.34607 13.4289 5.20076 13.3078 5.10544C13.1867 5.01091 13.0281 4.97653 12.8789 5.01482L8.8789 6.01481C8.65624 6.07028 8.5 6.27027 8.5 6.49997V9.08757C8.34375 9.03211 8.17578 9.00007 8 9.00007C7.17266 9.00007 6.5 9.67273 6.5 10.5001C6.5 11.3274 7.17266 12.0001 8 12.0001L7.99999 12ZM12 10C11.7242 10 11.5 9.77578 11.5 9.5C11.5 9.22422 11.7242 9 12 9C12.2758 9 12.5 9.22422 12.5 9.5C12.5 9.77578 12.2758 10 12 10ZM7.99999 10C8.27577 10 8.49999 10.2242 8.49999 10.5C8.49999 10.7758 8.27577 11 7.99999 11C7.72421 11 7.49999 10.7758 7.49999 10.5C7.49999 10.2242 7.72421 10 7.99999 10Z" fill="#757575"/>
</svg>
