<?xml version="1.0" encoding="UTF-8"?>
<svg width="20" height="20" viewBox="0 0 20 20" fill="none" xmlns="http://www.w3.org/2000/svg">
<path d="M9.99961 1.66638C5.40201 1.66638 1.66602 5.40238 1.66602 9.99998C1.66602 14.5976 5.40201 18.3336 9.99961 18.3336C14.5972 18.3336 18.3332 14.5976 18.3332 9.99998C18.3332 5.40238 14.5972 1.66638 9.99961 1.66638ZM9.99961 2.49998C14.1464 2.49998 17.4996 5.85318 17.4996 9.99998C17.4996 12.1008 16.6363 13.9946 15.2488 15.3546C14.7629 13.4093 13.2278 11.882 11.2784 11.4078C12.4831 10.9047 13.333 9.71638 13.333 8.33358C13.333 6.49686 11.8361 4.99998 9.99942 4.99998C8.16269 4.99998 6.66582 6.49686 6.66582 8.33358C6.66582 9.7164 7.51503 10.904 8.71821 11.4078C6.77056 11.882 5.23622 13.4102 4.75022 15.3546C3.36272 13.9944 2.49942 12.1006 2.49942 9.99998C2.49942 5.85318 5.85262 2.49998 9.99942 2.49998H9.99961ZM9.99961 5.77658C11.4168 5.77658 12.5582 6.91564 12.5582 8.33358C12.5582 9.75076 11.4168 10.8922 9.99961 10.8922C8.58242 10.8922 7.44102 9.75078 7.44102 8.33358C7.44102 6.91562 8.58242 5.77658 9.99961 5.77658ZM9.99961 12.0836C12.2996 12.0836 14.1856 13.7742 14.5192 15.9766C13.2622 16.9281 11.7004 17.5 9.99961 17.5C8.3004 17.5 6.73942 16.9281 5.48322 15.9781C5.8176 13.7757 7.69962 12.0835 9.99961 12.0835V12.0836Z" fill="#757575"/>
</svg>

