<?xml version="1.0" encoding="UTF-8"?>
<svg width="20" height="20" viewBox="0 0 20 20" fill="none" xmlns="http://www.w3.org/2000/svg">
<path d="M10 0.5C4.7602 0.5 0.5 4.7602 0.5 10C0.5 15.2398 4.7602 19.5 10 19.5C15.2398 19.5 19.5 15.2398 19.5 10C19.5 4.7602 15.2398 0.5 10 0.5ZM10 17.9602C5.6 17.9602 2.0398 14.4 2.0398 10C2.0398 5.6 5.6 2.0398 10 2.0398C14.4 2.0398 17.9602 5.6 17.9602 10C17.9602 14.4 14.4 17.9602 10 17.9602Z" fill="#1B2939"/>
<path d="M12.9798 5.22043L8.13999 7.50002C7.86031 7.63987 7.61967 7.86018 7.50015 8.13986L5.22055 12.9797C4.98071 13.5 5.08071 14.1 5.48071 14.5C5.74087 14.7601 6.08071 14.9 6.42055 14.9C6.62055 14.9 6.82055 14.8601 7.00023 14.7601L11.84 12.4805C12.1197 12.3407 12.3604 12.1204 12.4799 11.8407L14.7595 7.0009C14.9993 6.48058 14.8993 5.88058 14.4993 5.48058C14.1001 5.0798 13.5001 4.9798 12.9798 5.22042L12.9798 5.22043ZM11.1603 11.1204L8.87985 8.84002L13.1799 6.81962L11.1603 11.1204Z" fill="#1B2939"/>
</svg>
