<svg width="20" height="20" viewBox="0 0 20 20" fill="none" xmlns="http://www.w3.org/2000/svg">
<path d="M15.9998 2.24601C15.9998 3.05461 15.5123 3.78429 14.7655 4.09367C14.0178 4.40305 13.1576 4.23196 12.5859 3.66007C12.014 3.08819 11.8429 2.22803 12.1523 1.48047C12.4616 0.733594 13.1913 0.246094 13.9999 0.246094C14.5304 0.246094 15.039 0.457034 15.414 0.832034C15.789 1.20703 15.9999 1.71563 15.9999 2.24609L15.9998 2.24601ZM8.87564 8.72181C9.24674 9.04681 9.80298 9.03977 10.1655 8.70619L11.4397 7.51791L12.3038 15.6139L12.692 19.1741C12.7295 19.5069 13.0108 19.7577 13.3459 19.7577H14.66C14.9944 19.7577 15.2764 19.5069 15.3139 19.1741L16.0936 12.0717C16.6061 11.8842 16.9686 11.424 17.0295 10.8819L17.5717 6.66007C17.6264 6.18039 17.474 5.69991 17.1522 5.33975C16.8311 4.97959 16.3709 4.77335 15.8881 4.77413H15.2654C15.2412 4.77178 15.217 4.78194 15.1998 4.79991L14.1615 6.09601C14.124 6.14601 14.0647 6.1757 14.0022 6.1757C13.9389 6.1757 13.8795 6.14601 13.842 6.09601L12.7998 4.79991C12.7842 4.78038 12.7608 4.76944 12.7358 4.77022L11.8576 4.79991C11.617 4.81085 11.3881 4.91085 11.2178 5.08195C11.1498 5.14992 10.2061 6.04211 9.49358 6.70227L8.47326 5.99211H8.47404C8.38185 5.93195 8.26232 5.93195 8.17014 5.99211L7.48576 6.39993L7.08576 6.64759C7.03732 6.67884 7.00607 6.72962 6.99982 6.78587C6.99357 6.8429 7.0131 6.89993 7.05373 6.93978L8.87564 8.72181ZM8.92564 4.80001L9.2358 4.60001C9.39048 4.76173 9.63424 4.80157 9.83268 4.69689C10.0311 4.5922 10.1358 4.36955 10.0897 4.15001L9.85611 3.07969V3.06563C9.80455 2.85703 9.62566 2.70391 9.41079 2.68595C9.19595 2.6672 8.99362 2.78829 8.90768 2.98595L5.14988 2.51173C5.08269 2.24767 4.81628 2.08517 4.54988 2.14611C4.28426 2.20782 4.11628 2.47033 4.17176 2.73829L5.04988 6.82029V6.83435C5.11472 7.10545 5.3866 7.27263 5.6577 7.20779C5.9288 7.14373 6.09676 6.87107 6.03191 6.59997V6.57419L7.17801 5.87185L8.92564 4.80001ZM2.78583 5.42579C2.80615 5.42814 2.82724 5.42814 2.84755 5.42579L3.81317 5.22579H3.81395C3.97333 5.19142 4.07489 5.03361 4.03973 4.87423C4.00536 4.71486 3.84755 4.61329 3.68817 4.64767L2.72255 4.84767H2.72177C2.57255 4.87814 2.47099 5.01721 2.48661 5.16955C2.50302 5.32112 2.63114 5.43517 2.78427 5.43439L2.78583 5.42579ZM3.66005 4.36797H3.70771C3.84365 4.34922 3.94833 4.23985 3.95927 4.10313C3.97099 3.9672 3.88661 3.84063 3.75615 3.80001L2.75615 3.63205H2.70771C2.57256 3.6508 2.46787 3.76017 2.45615 3.89689C2.44443 4.03282 2.52959 4.15939 2.66005 4.20001L3.66005 4.36797ZM3.21788 6.56797C3.27569 6.56797 3.33194 6.55 3.37959 6.51797L4.22177 5.95391C4.35615 5.86407 4.39208 5.68203 4.30224 5.54767C4.21162 5.41408 4.03036 5.37814 3.896 5.46799L3.05382 6.03205C2.94523 6.10314 2.89679 6.23751 2.93507 6.36173C2.97335 6.48516 3.0882 6.56955 3.21789 6.56797L3.21788 6.56797Z" fill="#757575"/>
</svg>
