<?xml version="1.0" encoding="UTF-8"?>
<svg width="100pt" height="100pt" version="1.1" viewBox="0 0 100 100" xmlns="http://www.w3.org/2000/svg">
 <g>
  <path d="m3.2109 62.441c-0.74609 2.7539-0.35938 5.6953 1.0742 8.1641l5.0117 8.6797v0.003906c2.9766 5.1367 9.5469 6.8984 14.695 3.9375l2.1953-1.2812c2.4883 1.8242 5.168 3.3789 7.9922 4.6328v2.5586c0 5.9805 4.8828 10.863 10.805 10.863h10.023c5.9297 0 10.812-4.8828 10.812-10.867v-2.5586c2.8242-1.2539 5.5-2.8047 7.9922-4.6367l2.207 1.2812-0.003906 0.003906c5.1445 2.9648 11.719 1.2031 14.691-3.9375l5.0078-8.6797v-0.003907c2.9648-5.1445 1.1992-11.719-3.9414-14.695l-2.2188-1.2812c0.35937-3.0742 0.35937-6.1797 0-9.2539l2.2188-1.2812c5.1406-2.9766 6.9023-9.5508 3.9375-14.695l-5.0117-8.6797v-0.003906c-2.9727-5.1367-9.5469-6.8984-14.691-3.9375l-2.1953 1.2812c-2.4883-1.8242-5.168-3.3789-7.9922-4.6289v-2.5586c0-5.9844-4.8828-10.867-10.809-10.867h-10.027c-5.9219 0-10.805 4.8828-10.805 10.867v2.5586c-2.8242 1.2539-5.5 2.8047-7.9922 4.6367l-2.2109-1.2812 0.003907-0.003906c-2.4688-1.4258-5.4023-1.8125-8.1562-1.0742-2.7539 0.73438-5.1016 2.5391-6.5273 5.0078l-5.0117 8.6836c-2.9648 5.1484-1.2031 11.723 3.9375 14.699l2.2188 1.2812c-0.35547 3.0742-0.35547 6.1797 0 9.2539l-2.2188 1.2812c-2.4766 1.4219-4.2812 3.7734-5.0117 6.5312zm8.6328-0.25781l6.5664-3.7852-0.45703-2.5117c-0.70703-3.8906-0.70703-7.875 0-11.766l0.45703-2.5195-6.5625-3.7891c-1.6758-0.97266-2.2539-3.1172-1.2852-4.7969l5.0156-8.6797c0.96875-1.6797 3.1172-2.2578 4.7969-1.2891l6.5781 3.7969 1.9531-1.6562c2.9961-2.5625 6.4336-4.5586 10.145-5.8867l2.3555-0.85547v-7.5781c0-1.9531 1.6836-3.6406 3.5781-3.6406h10.023c1.9023 0 3.5859 1.6797 3.5859 3.6406v7.5781l2.3672 0.85938c3.7148 1.3242 7.1562 3.3203 10.156 5.8867l1.9375 1.6562 6.5781-3.8008c1.6797-0.96484 3.8203-0.39062 4.793 1.2852l5.0117 8.6797v0.003906c0.96875 1.6797 0.39062 3.8242-1.2852 4.7969l-6.5625 3.7891 0.45703 2.5117c0.70703 3.8906 0.70703 7.8789 0 11.77l-0.45703 2.5156 6.5625 3.7891c1.6758 0.97266 2.2539 3.1172 1.2852 4.7969l-5.0156 8.6797c-0.96875 1.6797-3.1172 2.2578-4.7969 1.2891l-6.5781-3.7969-1.9531 1.6562c-2.9961 2.5625-6.4336 4.5586-10.145 5.8867l-2.3555 0.85547v7.5781c0 1.9531-1.6836 3.6406-3.582 3.6406h-10.027c-1.8984 0-3.5781-1.6797-3.5781-3.6406v-7.5781l-2.3672-0.85938h0.003907c-3.7188-1.3242-7.1602-3.3203-10.156-5.8828l-1.9375-1.6562-6.582 3.7969c-1.6797 0.96484-3.8242 0.39062-4.7969-1.2852l-5.0078-8.6836c-0.96875-1.6836-0.39453-3.832 1.2852-4.8008z"/>
  <path d="m50 71.578c5.7227 0 11.211-2.2734 15.258-6.3203 4.0469-4.0469 6.3203-9.5352 6.3203-15.258s-2.2734-11.211-6.3203-15.258c-4.0469-4.0469-9.5352-6.3203-15.258-6.3203s-11.211 2.2734-15.258 6.3203c-4.0469 4.0469-6.3203 9.5352-6.3203 15.258 0.007813 5.7227 2.2812 11.207 6.3281 15.25 4.043 4.0469 9.5273 6.3203 15.25 6.3281zm0-35.906c3.8008 0 7.4453 1.5078 10.133 4.1953 2.6914 2.6875 4.1992 6.3359 4.1992 10.137 0 3.8008-1.5117 7.4453-4.1992 10.133s-6.332 4.1992-10.133 4.1953c-3.8008 0-7.4492-1.5078-10.137-4.1953-2.6875-2.6914-4.1953-6.3359-4.1953-10.137 0.003906-3.8008 1.5156-7.4414 4.2031-10.129s6.3281-4.1992 10.129-4.2031z"/>
 </g>
</svg>
