<?xml version="1.0" encoding="UTF-8"?>
<svg width="20" height="20" viewBox="0 0 20 20" fill="none" xmlns="http://www.w3.org/2000/svg">
<g clip-path="url(#clip0_279_17899)">
<path d="M8.84071 16.268C8.55711 15.4407 8.03759 14.7141 7.34695 14.1782L5.64851 12.8594C3.90475 11.5055 2.84531 9.45245 2.75391 7.24624C2.75391 3.24464 5.99771 0.000244141 9.99991 0.000244141C14.0021 0.000244141 17.2459 3.24484 17.2459 7.24624C17.1545 9.45245 16.0951 11.5056 14.3513 12.8594L12.6529 14.1782C11.9622 14.7141 11.4427 15.4407 11.1591 16.268L10.9591 16.8508C10.8185 17.261 10.4333 17.536 9.99973 17.536C9.56613 17.536 9.18097 17.261 9.04035 16.8508L8.84071 16.268ZM10.0001 20C8.39931 20 7.10169 19.8055 7.10169 19.5648C7.10169 19.325 8.39935 19.1305 10.0001 19.1305C11.6008 19.1305 12.8985 19.325 12.8985 19.5648C12.8985 19.8055 11.6008 20 10.0001 20ZM10.0001 12.8984C13.2017 12.8984 15.7969 10.303 15.7969 7.1016C15.7969 3.9 13.2015 1.3048 10.0001 1.3048C6.79869 1.3048 4.20329 3.9002 4.20329 7.1016C4.20329 10.3032 6.79869 12.8984 10.0001 12.8984ZM9.36493 9.646C9.36493 10.1983 8.82039 10.6335 8.16103 10.6335C7.50087 10.6335 6.95635 10.1983 6.95635 9.646C6.95635 9.09444 7.50089 8.6585 8.16103 8.6585C8.29618 8.6585 8.42899 8.67882 8.55635 8.71632V4.63812L12.7087 3.18812L12.7541 8.74352C12.7541 9.29586 12.2095 9.73102 11.5494 9.73102C10.89 9.73102 10.3455 9.29586 10.3455 8.74352C10.3455 8.19196 10.89 7.75602 11.5494 7.75602C11.6853 7.75602 11.8181 7.77633 11.9463 7.81383L11.9392 5.41303L9.32043 6.24741L9.36493 9.646Z" fill="#757575"/>
</g>
<defs>
<clipPath id="clip0_279_17899">
<rect width="20" height="20" fill="white"/>
</clipPath>
</defs>
</svg>

