<svg width="20" height="20" viewBox="0 0 20 20" fill="none" xmlns="http://www.w3.org/2000/svg">
<path d="M17.6156 10.6922V7.92261H17.5906C17.3554 6.06245 14.0086 3.76941 9.99998 3.76941C5.99138 3.76941 2.73038 5.88981 2.40938 7.92341H2.38438V10.693H1V16.2312H6.5382V11.3844H7.92258V16.2304H9.30696L9.30774 11.3844H10.6929V16.2304H12.0773V11.3844H13.4617V16.2304H18.9999V10.6922H17.6156ZM5.15378 10H3.76862L3.7694 7.92263H5.15456L5.15378 10ZM7.92258 9.30785H6.5382V7.23045H7.92258V9.30785ZM10.6922 9.30785H9.30702L9.3078 7.23045H10.693L10.6922 9.30785ZM13.4618 9.30785H12.0774V7.23045H13.4618V9.30785ZM16.2306 10H14.8462V7.92263H16.2314L16.2306 10Z" fill="#757575"/>
</svg>
