<?xml version="1.0" encoding="UTF-8"?>
<svg width="100pt" height="100pt" version="1.1" viewBox="0 0 100 100" xmlns="http://www.w3.org/2000/svg">
 <g>
  <path d="m36 64.699c0 6.5352-9.6016 6.5352-9.6016 0 0-6.5312 9.6016-6.5312 9.6016 0"/>
  <path d="m69 61c0 6.5352-10 6.5352-10 0s10-6.5352 10 0"/>
  <path d="m69 32.699l-29 3.1992v5.1016l29-3.1992z"/>
  <path d="m9 91h82v-82h-82zm22.199-35.102c1.8008 0 3.3984 0.5 4.8008 1.3984v-25l37-4.1016v33.199c-0.30078 4.6992-4.1992 8.3984-9 8.3984-5 0-9-4-9-8.8984 0-4.8984 4-8.8984 9-8.8984 1.8008 0 3.6016 0.60156 5 1.5v-11.695l-29 3.3008v19.102 0.5c0 4.8984-3.8984 8.8984-8.8008 8.8984-4.8008 0-8.8008-4-8.8008-8.8984 0.10156-4.9023 4-8.8047 8.8008-8.8047z"/>
 </g>
</svg>
