<?xml version="1.0" encoding="UTF-8"?>
<svg width="100pt" height="100pt" version="1.1" viewBox="0 0 100 100" xmlns="http://www.w3.org/2000/svg">
 <g>
  <path d="m-7896.3-125.07c-79.082 0-143.42 64.336-143.42 143.41 0 79.086 64.34 143.42 143.42 143.42 79.082 0 143.42-64.34 143.42-143.42-0.003906-79.078-64.34-143.41-143.42-143.41zm-0.5625 60.738c25.016 0 45.293 20.281 45.293 45.293 0 25.016-20.281 45.293-45.293 45.293-25.02 0-45.293-20.281-45.293-45.293s20.273-45.293 45.293-45.293zm80.781 183.32c-22.02 17.602-49.902 28.152-80.223 28.152-30.281 0-58.141-10.512-80.148-28.074 2.0391-36.297 25.941-72.961 55.18-72.961h49.977c29.301 0 53.258 35.332 55.215 71.688v0.011719 1.1836z"/>
  <path d="m50 5.8164c-24.363 0-44.184 19.82-44.184 44.18 0 24.363 19.82 44.184 44.184 44.184s44.184-19.824 44.184-44.184-19.82-44.18-44.184-44.18zm0 17.051c7.9141 0 14.328 6.418 14.328 14.328 0 7.9141-6.418 14.332-14.328 14.332-7.9141 0-14.328-6.418-14.328-14.332 0-7.9141 6.4141-14.328 14.328-14.328zm-20.309 62.059c0.4375 0.25391 0.87891 0.5 1.3242 0.73828-0.44531-0.23828-0.88672-0.48437-1.3242-0.73828zm20.309 4.7539c-12.133 0-23.004-5.4805-30.289-14.09 2.043-9.582 10.543-16.906 20.723-16.906h19.133c10.227 0 18.75 7.2461 20.746 16.875-7.2852 8.6289-18.164 14.121-30.312 14.121zm30.492-13.133s0 0.003906-0.003907 0.007813c0.003907-0.003907 0.003907-0.003907 0.003907-0.007813z"/>
  <path d="m80.492 76.547l-0.003907 0.007813z"/>
 </g>
</svg>
