<?xml version="1.0" encoding="UTF-8"?>
<svg width="100pt" height="100pt" version="1.1" viewBox="0 0 100 100" xmlns="http://www.w3.org/2000/svg">
 <g>
  <path d="m29.688 73.438c0.39062 0.003906 0.77734-0.070312 1.1406-0.21875l29.156-11.469c0.80859-0.31641 1.4492-0.95703 1.7656-1.7656l11.469-29.156c0.44922-1.1562 0.17578-2.4688-0.70312-3.3438-0.875-0.87891-2.1875-1.1523-3.3438-0.70312l-29.156 11.469c-0.80859 0.31641-1.4492 0.95703-1.7656 1.7656l-11.469 29.156c-0.44922 1.1562-0.17188 2.4688 0.70312 3.3438 0.58203 0.58594 1.375 0.91797 2.2031 0.92188zm13.891-29.875 21.203-8.3438-8.3438 21.219-21.219 8.3438z"/>
  <path d="m50 93.75c11.602 0 22.73-4.6094 30.938-12.812 8.2031-8.207 12.812-19.336 12.812-30.938s-4.6094-22.73-12.812-30.938c-8.207-8.2031-19.336-12.812-30.938-12.812s-22.73 4.6094-30.938 12.812c-8.2031 8.207-12.812 19.336-12.812 30.938s4.6094 22.73 12.812 30.938c8.207 8.2031 19.336 12.812 30.938 12.812zm0-81.25c9.9453 0 19.484 3.9492 26.516 10.984 7.0352 7.0312 10.984 16.57 10.984 26.516s-3.9492 19.484-10.984 26.516c-7.0312 7.0352-16.57 10.984-26.516 10.984s-19.484-3.9492-26.516-10.984c-7.0352-7.0312-10.984-16.57-10.984-26.516s3.9492-19.484 10.984-26.516c7.0312-7.0352 16.57-10.984 26.516-10.984z"/>
  <path d="m46.688 46.688c-1.8281 1.832-1.8281 4.793 0 6.625 1.832 1.8281 4.793 1.8281 6.625 0 1.7227-1.8477 1.6719-4.7266-0.11328-6.5117-1.7852-1.7852-4.6641-1.8359-6.5117-0.11328z"/>
 </g>
</svg>
