<?xml version="1.0" encoding="UTF-8"?>
<svg width="100pt" height="100pt" version="1.1" viewBox="0 0 100 100" xmlns="http://www.w3.org/2000/svg">
 <path d="m49.996 17c-0.61328 0.011719-1.2383 0.23047-1.8438 0.625l-38 30c-0.97656 0.96875-1.6641 3.0547-0.65625 4.3438 1.0078 1.2891 3.1211 1.4609 4.3438 0.375l36.156-28.531 36.156 28.531c1.2227 1.0859 3.3828 0.94531 4.3438-0.375 0.84375-1.1602 0.63672-3.3789-0.65625-4.3438l-13.844-10.938v-16.688c0-1.6562-1.3438-3-3-3h-8c-1.6602 0-3 1.3438-3 3v5.6562l-10.156-8.0312c-0.625-0.4375-1.2305-0.63672-1.8438-0.625zm18 6h2v8.9688l-2-1.5938zm-42 23.281-6 4.75v28.969c0 1.6562 1.3398 3 3 3h19c1.6562 0 3-1.3438 3-3v-12c0-2.8203 2.1797-5 5-5 2.8203 0 5 2.1797 5 5v12c0 1.6562 1.3398 3 3 3h19c1.6562 0 3-1.3438 3-3v-28.969l-6-4.75v30.719h-13v-9c0-6.043-4.957-11-11-11-6.043 0-11 4.957-11 11v9h-13z"/>
</svg>
