<?xml version="1.0" encoding="UTF-8"?>
<svg width="100pt" height="100pt" version="1.1" viewBox="0 0 100 100" xmlns="http://www.w3.org/2000/svg">
 <path d="m89.25 53.312-11.125 11.344c-0.875 0.88672-2.0664 1.3828-3.3125 1.3828s-2.4375-0.49609-3.3125-1.3828c-1.8281-1.832-1.8281-4.793 0-6.625l3.3438-3.375h-31.875c-2.5898 0-4.6875-2.0977-4.6875-4.6875s2.0977-4.6875 4.6875-4.6875h31.688l-3.3438-3.375c-1.8125-1.8828-1.7578-4.875 0.125-6.6875s4.875-1.7578 6.6875 0.125l11.281 11.344c0.86328 0.89453 1.3359 2.1016 1.3047 3.3438-0.027344 1.2461-0.55469 2.4258-1.4609 3.2812zm-29.875 29.5h-40.625v-65.625h40.625c2.5898 0 4.6875-2.0977 4.6875-4.6875s-2.0977-4.6875-4.6875-4.6875h-45.312c-2.5898 0-4.6875 2.0977-4.6875 4.6875v75c0 2.5898 2.0977 4.6875 4.6875 4.6875h45.312c2.5898 0 4.6875-2.0977 4.6875-4.6875s-2.0977-4.6875-4.6875-4.6875z"/>
</svg>
