<?xml version="1.0" encoding="UTF-8"?>
<svg width="100pt" height="100pt" version="1.1" viewBox="0 0 100 100" xmlns="http://www.w3.org/2000/svg">
 <g>
  <path d="m23.5 46.699h53.102c1.8008 0 3.3008-1.5 3.3008-3.3008 0-1.8008-1.5-3.3008-3.3008-3.3008l-53.102 0.003906c-1.8008 0-3.3008 1.5-3.3008 3.3008 0 1.7969 1.4023 3.2969 3.3008 3.2969z"/>
  <path d="m23.5 62.301h53.102c1.8008 0 3.3008-1.5 3.3008-3.3008s-1.5-3.3008-3.3008-3.3008h-53.102c-1.8008 0-3.3008 1.5-3.3008 3.3008 0 1.8984 1.4023 3.3008 3.3008 3.3008z"/>
  <path d="m23.5 78h53.102c1.8008 0 3.3008-1.5 3.3008-3.3008s-1.5-3.3008-3.3008-3.3008h-53.102c-1.8008 0-3.3008 1.5-3.3008 3.3008s1.4023 3.3008 3.3008 3.3008z"/>
  <path d="m89 6.3984h-78c-4.6992 0-8.5 3.8008-8.5 8.5v70.102c0 4.6992 3.8008 8.5 8.5 8.5h78c4.6992 0 8.5-3.8008 8.5-8.5v-70.102c0-4.6992-3.8008-8.5-8.5-8.5zm-14.199 6.6016c2.8984 0 5.1992 2.3008 5.1992 5.1992 0 2.8984-2.3008 5.1992-5.1992 5.1992-2.8984 0-5.1992-2.3008-5.1992-5.1992 0-2.8984 2.2969-5.1992 5.1992-5.1992zm-24.801 0c2.8984 0 5.1992 2.3008 5.1992 5.1992 0 2.8984-2.3008 5.1992-5.1992 5.1992s-5.1992-2.3008-5.1992-5.1992c0-2.8984 2.3008-5.1992 5.1992-5.1992zm-24.801 0c2.8984 0 5.1992 2.3008 5.1992 5.1992 0 2.8984-2.3008 5.1992-5.1992 5.1992-2.8984 0-5.1992-2.2969-5.1992-5.1992 0-2.8984 2.3008-5.1992 5.1992-5.1992zm65.699 72.102c0 1.1016-0.89844 2-2 2h-77.898c-1.1016 0-2-0.89844-2-2v-54.902h81.898z"/>
 </g>
</svg>
