<?xml version="1.0" encoding="UTF-8"?>
<svg width="100pt" height="100pt" version="1.1" viewBox="0 0 100 100" xmlns="http://www.w3.org/2000/svg">
 <g>
  <path d="m41.016 35.137c-0.26172-1.0742-1.3477-1.7305-2.418-1.4688l-4.8594 1.1836c-1.0742 0.26172-1.7305 1.3438-1.4688 2.418 0.22266 0.91406 1.0391 1.5273 1.9414 1.5273 0.15625 0 0.31641-0.019531 0.47656-0.058594l4.8594-1.1836c1.0703-0.26172 1.7305-1.3438 1.4688-2.418z"/>
  <path d="m30.328 37.738c-0.26172-1.0742-1.3438-1.7305-2.418-1.4688l-4.8594 1.1836c-1.0742 0.26172-1.7305 1.3438-1.4688 2.418 0.22266 0.91406 1.0391 1.5273 1.9414 1.5273 0.15625 0 0.31641-0.019532 0.47656-0.058594l4.8594-1.1836c1.0703-0.26172 1.7305-1.3438 1.4688-2.418z"/>
  <path d="m90.707 21.789l-6.4375-1.5664c-1.0156-0.24609-2.0781 0.16406-2.6641 1.0312-2.0859 3.0898-5.9102 4.5781-9.5234 3.6953-3.6133-0.87891-6.3281-3.957-6.7539-7.6602-0.12109-1.0391-0.875-1.8945-1.8906-2.1406l-6.4375-1.5664c-2.9453-0.71875-5.9258 1.0977-6.6445 4.043l-0.17578 0.72266-0.52344-2.1562c-0.34766-1.4258-1.2305-2.6289-2.4883-3.3945-1.2578-0.76562-2.7305-0.99609-4.1562-0.64844l-6.4375 1.5664c-1.0156 0.24609-1.7695 1.1016-1.8906 2.1406-0.42969 3.7031-3.1445 6.7812-6.7539 7.6602-3.6094 0.87891-7.4375-0.60547-9.5234-3.6953-0.58594-0.86719-1.6484-1.2773-2.6641-1.0312l-6.4375 1.5664c-1.4258 0.34766-2.6289 1.2305-3.3945 2.4883-0.77734 1.2539-1.0078 2.7305-0.66016 4.1562l13.488 55.379c0.34766 1.4258 1.2305 2.6289 2.4883 3.3945 0.875 0.53125 1.8555 0.80469 2.8516 0.80469 0.43359 0 0.87109-0.050781 1.3047-0.15625l21.676-5.2812 27.559 6.7109c0.43359 0.10547 0.87109 0.15625 1.3047 0.15625 0.99609 0 1.9766-0.27344 2.8516-0.80469 1.2578-0.76562 2.1406-1.9727 2.4883-3.3945l13.488-55.375c0.34766-1.4258 0.11719-2.9023-0.64844-4.1562-0.76172-1.2578-1.9688-2.1406-3.3945-2.4883zm-66.508 59.777c-0.16016 0.039063-0.29297-0.011718-0.375-0.0625-0.082031-0.050781-0.1875-0.14453-0.22656-0.30469l-9.1406-37.531 3.7148-0.90625c1.0742-0.26172 1.7305-1.3438 1.4688-2.418s-1.3438-1.7305-2.4141-1.4688l-3.7148 0.90625-3.4023-13.961c-0.039063-0.16016 0.011719-0.29297 0.0625-0.375 0.050781-0.082031 0.14453-0.1875 0.30469-0.22656l4.8672-1.1875c3.3867 3.8438 8.707 5.5742 13.758 4.3477 5.0508-1.2305 8.9766-5.2148 10.219-10.188l4.8672-1.1836c0.16016-0.039062 0.29297 0.011719 0.375 0.0625 0.082031 0.050782 0.1875 0.14453 0.22656 0.30469l2.8086 11.535-0.66406 2.7266-2.5117 0.60938c-1.0742 0.26172-1.7305 1.3438-1.4688 2.418 0.22266 0.91406 1.0391 1.5273 1.9414 1.5273 0.15625 0 0.31641-0.019531 0.47656-0.058594l0.49609-0.12109-9.0039 36.988c-0.34766 1.4258-0.11719 2.9023 0.64844 4.1562 0.21875 0.36328 0.48438 0.68359 0.77344 0.97656zm65.691-54.316l-3.3984 13.961-3.7148-0.90625c-1.0703-0.26172-2.1562 0.39844-2.4141 1.4688-0.26172 1.0742 0.39844 2.1562 1.4688 2.418l3.7148 0.90625-9.1406 37.535c-0.039062 0.16016-0.14453 0.25391-0.22656 0.30469-0.082032 0.050781-0.21484 0.10156-0.375 0.0625l-33.711-8.2109c-0.16016-0.039062-0.25391-0.14453-0.30469-0.22656-0.050781-0.082031-0.10156-0.21484-0.0625-0.375l9.1406-37.535 3.7656 0.91797c0.16016 0.039063 0.31641 0.058594 0.47656 0.058594 0.90234 0 1.7188-0.61328 1.9414-1.5273 0.26172-1.0742-0.39844-2.1562-1.4688-2.418l-3.7656-0.91797 3.3984-13.961c0.054687-0.22656 0.26562-0.38281 0.49219-0.38281 0.039063 0 0.074219 0.003906 0.11328 0.015625l4.8672 1.1836c1.2422 4.9727 5.168 8.957 10.219 10.188 5.0547 1.2305 10.371-0.50391 13.758-4.3477l4.8672 1.1836c0.16016 0.039063 0.25781 0.14453 0.30469 0.22656 0.046874 0.085937 0.097656 0.21484 0.054687 0.37891z"/>
  <path d="m76.949 38.887l-4.8594-1.1836c-1.0742-0.26172-2.1562 0.39844-2.418 1.4688-0.26172 1.0742 0.39844 2.1562 1.4688 2.418l4.8594 1.1836c0.16016 0.039062 0.31641 0.058593 0.47656 0.058593 0.90234 0 1.7188-0.61328 1.9414-1.5273 0.26172-1.0742-0.39844-2.1562-1.4688-2.418z"/>
  <path d="m66.262 36.281l-4.8594-1.1836c-1.0742-0.26172-2.1562 0.39844-2.4141 1.4688-0.26172 1.0742 0.39844 2.1562 1.4688 2.418l4.8594 1.1836c0.16016 0.039062 0.31641 0.058593 0.47656 0.058593 0.90234 0 1.7188-0.61328 1.9414-1.5273 0.25781-1.0742-0.40234-2.1562-1.4727-2.418z"/>
 </g>
</svg>
